<svg xmlns="http://www.w3.org/2000/svg" width="45" height="44" fill="none"><g stroke="#CBD5E1" stroke-linecap="round" stroke-linejoin="round" stroke-width="2.75" clip-path="url(#a)"><path fill="#0F172A" d="M33.167 7.333h-22A3.667 3.667 0 0 0 7.5 11v22a3.667 3.667 0 0 0 3.667 3.667h22A3.667 3.667 0 0 0 36.833 33V11a3.667 3.667 0 0 0-3.666-3.667Z"/><path d="M14.834 20.167v9.166M14.834 14.667v.018M22.167 29.333v-9.166M29.5 29.333v-5.5a3.666 3.666 0 1 0-7.333 0"/></g><defs><clipPath id="a"><path fill="#fff" d="M.167 0h44v44h-44z"/></clipPath></defs></svg>