<svg xmlns="http://www.w3.org/2000/svg" width="70" height="70" fill="none"><rect width="60" height="60" x="5" y="5" fill="url(#a)" rx="30"/><g filter="url(#b)"><rect width="58.442" height="58.442" x="5.779" y="5.779" fill="url(#c)" rx="29.221"/><rect width="57.942" height="57.942" x="6.029" y="6.029" stroke="url(#d)" stroke-width=".5" rx="28.971"/></g><g filter="url(#e)"><path fill="#0B4C8C" fill-rule="evenodd" d="M24.48 23.117c0 2.044-1.744 3.701-3.896 3.701-2.151 0-3.896-1.657-3.896-3.701s1.745-3.701 3.896-3.701c2.152 0 3.896 1.657 3.896 3.7Zm-7.792 29.805h7.18V28.766h-7.18v24.156Zm26.327 0h7.18v-13.64c0-3.264-.759-5.588-2.284-7.32-1.514-1.73-3.498-2.418-5.952-2.418-3.226 0-5.579 1.638-7.05 4.053h-.149l-.438-4.83h-5.667c.096 2.415 0 24.155 0 24.155h7.18V37.796c.593-1.877 1.776-2.815 3.64-2.815 2.353 0 3.54 1.675 3.54 5.037v12.904Z" clip-rule="evenodd"/></g><mask id="g" fill="#fff"><path fill-rule="evenodd" d="M27.597 21.169c0 2.044-1.744 3.701-3.896 3.701s-3.896-1.657-3.896-3.701 1.744-3.701 3.896-3.701 3.896 1.657 3.896 3.7Zm-7.792 29.805h7.18V26.818h-7.18v24.156Zm26.327 0h7.18v-13.64c0-3.264-.759-5.588-2.284-7.32-1.514-1.73-3.499-2.418-5.952-2.418-3.226 0-5.579 1.638-7.05 4.053h-.149l-.438-4.83h-5.667c.096 2.415 0 24.155 0 24.155h7.18V35.848c.593-1.877 1.776-2.815 3.64-2.815 2.353 0 3.54 1.675 3.54 5.037v12.904Z" clip-rule="evenodd"/></mask><path fill="#fff" fill-opacity=".9" fill-rule="evenodd" d="M27.597 21.169c0 2.044-1.744 3.701-3.896 3.701s-3.896-1.657-3.896-3.701 1.744-3.701 3.896-3.701 3.896 1.657 3.896 3.7Zm-7.792 29.805h7.18V26.818h-7.18v24.156Zm26.327 0h7.18v-13.64c0-3.264-.759-5.588-2.284-7.32-1.514-1.73-3.499-2.418-5.952-2.418-3.226 0-5.579 1.638-7.05 4.053h-.149l-.438-4.83h-5.667c.096 2.415 0 24.155 0 24.155h7.18V35.848c.593-1.877 1.776-2.815 3.64-2.815 2.353 0 3.54 1.675 3.54 5.037v12.904Z" clip-rule="evenodd"/><path fill="url(#f)" d="M26.985 50.974v.5h.5v-.5h-.5Zm-7.18 0h-.5v.5h.5v-.5Zm7.18-24.156h.5v-.5h-.5v.5Zm-7.18 0v-.5h-.5v.5h.5Zm33.507 24.156v.5h.5v-.5h-.5Zm-7.18 0h-.5v.5h.5v-.5Zm4.896-20.96-.376.33h.001l.375-.33Zm-13.002 1.635v.5h.28l.147-.24-.428-.26Zm-.149 0-.498.046.041.454h.457v-.5Zm-.438-4.83.498-.046-.041-.455h-.457v.5Zm-5.667 0v-.5h-.52l.02.519.5-.02Zm0 24.155-.5-.002-.002.502h.502v-.5Zm7.18 0v.5h.5v-.5h-.5Zm0-15.126-.477-.151-.023.073v.078h.5ZM23.702 25.37c2.403 0 4.395-1.857 4.395-4.201h-1c0 1.744-1.496 3.201-3.396 3.201v1Zm-4.397-4.201c0 2.344 1.993 4.201 4.396 4.201v-1c-1.9 0-3.396-1.457-3.396-3.201h-1Zm4.396-4.201c-2.403 0-4.396 1.857-4.396 4.2h1c0-1.743 1.496-3.2 3.396-3.2v-1Zm4.396 4.2c0-2.343-1.992-4.2-4.396-4.2v1c1.9 0 3.396 1.457 3.396 3.2h1Zm-1.112 29.306h-7.18v1h7.18v-1Zm-.5-23.656v24.156h1V26.818h-1Zm-6.68.5h7.18v-1h-7.18v1Zm.5 23.656V26.818h-1v24.156h1Zm33.007-.5h-7.18v1h7.18v-1Zm-.5-13.14v13.64h1v-13.64h-1Zm-2.159-6.99c1.42 1.614 2.159 3.805 2.159 6.99h1c0-3.344-.78-5.8-2.408-7.65l-.75.66Zm-5.577-2.248c2.35 0 4.18.654 5.576 2.247l.753-.659c-1.634-1.865-3.772-2.588-6.329-2.588v1Zm-6.623 3.814c1.394-2.289 3.596-3.814 6.623-3.814v-1c-3.425 0-5.928 1.75-7.477 4.293l.854.52Zm-.576.24h.148v-1h-.148v1Zm-.936-5.287.438 4.832.996-.09-.438-4.832-.996.09Zm-5.17.455h5.668v-1h-5.667v1Zm0 23.656.5.002v-.016l.001-.046v-.183a1877.95 1877.95 0 0 0 .013-3.19c.008-2.076.017-4.87.023-7.738.012-5.728.012-11.783-.037-13.005l-.999.04c.048 1.194.048 7.217.036 12.963a5213.525 5213.525 0 0 1-.035 10.926v.182l-.001.047v.015l.5.003Zm7.18-.5h-7.18v1h7.18v-1Zm-.5-14.626v15.126h1V35.848h-1Zm4.141-3.315c-1.019 0-1.896.258-2.604.81-.704.547-1.195 1.349-1.513 2.354l.953.301c.276-.871.673-1.477 1.174-1.867.498-.387 1.145-.598 1.99-.598v-1Zm4.04 5.537c0-1.725-.302-3.106-.98-4.067-.699-.993-1.75-1.47-3.06-1.47v1c1.042 0 1.761.361 2.243 1.046.505.716.797 1.853.797 3.491h1Zm0 12.904V38.07h-1v12.904h1Z" mask="url(#g)"/><defs><linearGradient id="a" x1="33.831" x2="35" y1="63.442" y2="8.312" gradientUnits="userSpaceOnUse"><stop stop-color="#004081"/><stop offset="1" stop-color="#5BA9F8"/></linearGradient><linearGradient id="c" x1="35" x2="35" y1="12.208" y2="57.792" gradientUnits="userSpaceOnUse"><stop stop-color="#0A66C2" stop-opacity=".56"/><stop offset="1" stop-color="#0A66C2"/></linearGradient><linearGradient id="d" x1="35" x2="35" y1="5.779" y2="64.221" gradientUnits="userSpaceOnUse"><stop stop-color="#59ACFF"/><stop offset="1" stop-color="#013162"/></linearGradient><linearGradient id="f" x1="36.558" x2="36.558" y1="17.468" y2="50.974" gradientUnits="userSpaceOnUse"><stop stop-color="#fff"/><stop offset="1" stop-color="#fff" stop-opacity="0"/></linearGradient><filter id="b" width="68.442" height="68.442" x=".779" y=".779" color-interpolation-filters="sRGB" filterUnits="userSpaceOnUse"><feFlood flood-opacity="0" result="BackgroundImageFix"/><feBlend in="SourceGraphic" in2="BackgroundImageFix" result="shape"/><feGaussianBlur result="effect1_foregroundBlur_3_290" stdDeviation="2.5"/></filter><filter id="e" width="53.507" height="53.507" x="6.688" y="9.416" color-interpolation-filters="sRGB" filterUnits="userSpaceOnUse"><feFlood flood-opacity="0" result="BackgroundImageFix"/><feBlend in="SourceGraphic" in2="BackgroundImageFix" result="shape"/><feGaussianBlur result="effect1_foregroundBlur_3_290" stdDeviation="5"/></filter></defs></svg>