<svg xmlns="http://www.w3.org/2000/svg" width="40" height="33" fill="none"><path fill="#0F172A" stroke="#CBD5E1" stroke-linecap="round" stroke-linejoin="round" stroke-width="2.75" d="M38.5 2.352c-1.833.898-3.63 1.263-5.5 1.815-2.055-2.32-5.102-2.448-8.03-1.351-2.928 1.096-4.845 3.776-4.803 6.85V11.5c-5.95.152-11.248-2.557-14.667-7.333 0 0-7.667 13.627 7.334 20.166-3.432 2.287-6.855 3.828-11 3.667 6.064 3.305 12.673 4.442 18.395 2.781 6.564-1.906 11.957-6.825 14.027-14.194.617-2.24.924-4.556.911-6.88-.004-.456 2.768-5.082 3.333-7.357v.002Z"/></svg>