<svg xmlns="http://www.w3.org/2000/svg" width="70" height="70" fill="none"><rect width="60" height="60" x="5" y="5" fill="url(#a)" rx="30"/><g filter="url(#b)"><rect width="58.442" height="58.442" x="5.779" y="5.779" fill="url(#c)" rx="29.221"/><rect width="57.942" height="57.942" x="6.029" y="6.029" stroke="url(#d)" stroke-width=".5" rx="28.971"/></g><g filter="url(#e)"><path fill="#13488C" fill-opacity=".5" d="M51.753 23.356a15.14 15.14 0 0 1-4.361 1.193 7.59 7.59 0 0 0 3.339-4.19 15.226 15.226 0 0 1-4.822 1.838 7.593 7.593 0 0 0-5.543-2.392c-4.193 0-7.593 3.391-7.593 7.574 0 .593.067 1.17.197 1.726a21.58 21.58 0 0 1-15.653-7.913A7.52 7.52 0 0 0 16.29 25a7.564 7.564 0 0 0 3.378 6.303 7.588 7.588 0 0 1-3.44-.948v.096c0 3.67 2.617 6.73 6.09 7.427a7.655 7.655 0 0 1-3.429.129 7.6 7.6 0 0 0 7.094 5.26 15.259 15.259 0 0 1-9.431 3.242c-.613 0-1.217-.036-1.812-.107a21.53 21.53 0 0 0 11.64 3.403c13.969 0 21.606-11.54 21.606-21.549 0-.328-.007-.655-.021-.98a15.357 15.357 0 0 0 3.788-3.92Z"/></g><path fill="#fff" fill-opacity=".9" stroke="url(#f)" stroke-width=".5" d="M29.883 43.016a7.35 7.35 0 0 1-6.721-4.694 7.904 7.904 0 0 0 3.119-.203l-.017-.487c-3.259-.653-5.738-3.458-5.884-6.862.964.468 2.04.747 3.175.783l.876.028-.729-.486A7.314 7.314 0 0 1 20.435 25c0-1.215.296-2.36.82-3.367a21.826 21.826 0 0 0 15.598 7.722l.332.016-.076-.323a7.31 7.31 0 0 1-.19-1.669c0-4.044 3.287-7.324 7.343-7.324 2.113 0 4.021.89 5.36 2.314l.095.1.136-.027a15.47 15.47 0 0 0 4.301-1.532 7.355 7.355 0 0 1-2.994 3.424l.157.463a15.43 15.43 0 0 0 3.628-.882 15.09 15.09 0 0 1-3.23 3.158l-.11.078.006.136c.014.32.021.645.021.97 0 9.9-7.553 21.298-21.355 21.298a21.27 21.27 0 0 1-10.6-2.815 15.51 15.51 0 0 0 10.356-3.277l.555-.434-.705-.013Z"/><defs><linearGradient id="a" x1="33.831" x2="35" y1="63.442" y2="8.312" gradientUnits="userSpaceOnUse"><stop stop-color="#0065A3"/><stop offset=".87" stop-color="#58C0FF"/></linearGradient><linearGradient id="c" x1="35" x2="35" y1="12.208" y2="57.792" gradientUnits="userSpaceOnUse"><stop stop-color="#1DA1F2"/><stop offset="1" stop-color="#1DA1F2" stop-opacity=".6"/></linearGradient><linearGradient id="d" x1="35" x2="35" y1="5.779" y2="64.221" gradientUnits="userSpaceOnUse"><stop stop-color="#1DA1F2"/><stop offset="1" stop-color="#046EAE"/></linearGradient><linearGradient id="f" x1="37.143" x2="37.143" y1="19.805" y2="49.805" gradientUnits="userSpaceOnUse"><stop stop-color="#fff"/><stop offset="1" stop-color="#fff" stop-opacity="0"/></linearGradient><filter id="b" width="68.442" height="68.442" x=".779" y=".779" color-interpolation-filters="sRGB" filterUnits="userSpaceOnUse"><feFlood flood-opacity="0" result="BackgroundImageFix"/><feBlend in="SourceGraphic" in2="BackgroundImageFix" result="shape"/><feGaussianBlur result="effect1_foregroundBlur_3_278" stdDeviation="2.5"/></filter><filter id="e" width="47.013" height="40" x="9.74" y="14.805" color-interpolation-filters="sRGB" filterUnits="userSpaceOnUse"><feFlood flood-opacity="0" result="BackgroundImageFix"/><feBlend in="SourceGraphic" in2="BackgroundImageFix" result="shape"/><feGaussianBlur result="effect1_foregroundBlur_3_278" stdDeviation="2.5"/></filter></defs></svg>