<svg xmlns="http://www.w3.org/2000/svg" width="70" height="70" fill="none"><rect width="60" height="60" x="5" y="5" fill="url(#a)" rx="30"/><g filter="url(#b)"><rect width="58.442" height="58.442" x="5.779" y="5.779" fill="url(#c)" rx="29.221"/><rect width="57.942" height="57.942" x="6.029" y="6.029" stroke="url(#d)" stroke-width=".5" rx="28.971"/></g><g filter="url(#e)"><path fill="#9B0000" d="M49.844 27.985a4.45 4.45 0 0 0-3.135-3.15c-2.765-.744-13.852-.744-13.852-.744s-11.087 0-13.852.744a4.45 4.45 0 0 0-3.134 3.15c-.741 2.777-.741 8.574-.741 8.574s0 5.796.74 8.573a4.45 4.45 0 0 0 3.135 3.15c2.765.744 13.852.744 13.852.744s11.087 0 13.852-.744a4.45 4.45 0 0 0 3.135-3.15c.74-2.777.74-8.573.74-8.573s0-5.796-.74-8.574ZM29.31 41.902V31.215l9.212 5.344-9.212 5.343Z"/></g><path fill="#fff" fill-opacity=".9" stroke="url(#f)" stroke-width=".5" d="M51.55 26.49c.363 1.361.547 3.48.64 5.278a73.113 73.113 0 0 1 .092 3.167V35h.25-.25v.065l-.001.188c-.002.163-.004.399-.01.691a73.124 73.124 0 0 1-.08 2.289c-.094 1.797-.278 3.916-.64 5.277a4.2 4.2 0 0 1-2.959 2.972c-.665.179-1.854.318-3.284.422-1.423.104-3.064.174-4.621.22a219.143 219.143 0 0 1-5.757.093h-.124v.25-.25h-.125a174.869 174.869 0 0 1-1.649-.011 219.143 219.143 0 0 1-4.108-.081 111.25 111.25 0 0 1-4.622-.22c-1.43-.105-2.619-.244-3.284-.423a4.2 4.2 0 0 1-2.958-2.972c-.363-1.361-.547-3.48-.64-5.277a73.124 73.124 0 0 1-.092-3.168V35h-.25.25v-.066l.001-.187.01-.692c.012-.585.035-1.393.081-2.288.093-1.797.277-3.917.64-5.277a4.2 4.2 0 0 1 2.958-2.973c.665-.179 1.854-.317 3.284-.422 1.423-.105 3.064-.174 4.622-.22a219.143 219.143 0 0 1 5.757-.093h.124v-.25.25h.481a221.797 221.797 0 0 1 5.4.092c1.558.047 3.199.116 4.622.22 1.43.106 2.62.244 3.284.423a4.2 4.2 0 0 1 2.958 2.972ZM31.01 40.344v.434l.375-.218 9.211-5.343.373-.217-.373-.216-9.211-5.343-.376-.218v11.12Z"/><defs><linearGradient id="a" x1="33.831" x2="35" y1="63.442" y2="8.312" gradientUnits="userSpaceOnUse"><stop stop-color="#A70000"/><stop offset="1" stop-color="#FF9191"/></linearGradient><linearGradient id="c" x1="35" x2="35" y1="12.208" y2="57.792" gradientUnits="userSpaceOnUse"><stop stop-color="red" stop-opacity=".67"/><stop offset="1" stop-color="red"/></linearGradient><linearGradient id="d" x1="35" x2="35" y1="5.779" y2="64.221" gradientUnits="userSpaceOnUse"><stop stop-color="#F88"/><stop offset="1" stop-color="#D60000"/></linearGradient><linearGradient id="f" x1="34.805" x2="34.805" y1="22.532" y2="47.468" gradientUnits="userSpaceOnUse"><stop stop-color="#fff"/><stop offset="1" stop-color="#fff" stop-opacity="0"/></linearGradient><filter id="b" width="68.442" height="68.442" x=".779" y=".779" color-interpolation-filters="sRGB" filterUnits="userSpaceOnUse"><feFlood flood-opacity="0" result="BackgroundImageFix"/><feBlend in="SourceGraphic" in2="BackgroundImageFix" result="shape"/><feGaussianBlur result="effect1_foregroundBlur_3_300" stdDeviation="2.5"/></filter><filter id="e" width="55.455" height="44.935" x="5.13" y="14.091" color-interpolation-filters="sRGB" filterUnits="userSpaceOnUse"><feFlood flood-opacity="0" result="BackgroundImageFix"/><feBlend in="SourceGraphic" in2="BackgroundImageFix" result="shape"/><feGaussianBlur result="effect1_foregroundBlur_3_300" stdDeviation="5"/></filter></defs></svg>